<svg  xmlns="http://www.w3.org/2000/svg"  xml:space="preserve" style="enable-background:new 0 0 65 65"  viewBox="0 0 65 65"><path d="M30.2 0h4.6c1 .1 2 .2 3.1.4 5.9 1 11.2 3.4 15.7 7.3 5.9 5.1 9.6 11.4 11 19.1.2 1.1.3 2.2.5 3.4v4.6c-.1 1-.2 2-.4 3.1-1.3 7.3-4.6 13.4-9.9 18.4-4.7 4.3-10.1 7.1-16.4 8.2-1.1.2-2.3.3-3.4.5h-4.6c-.7-.1-1.5-.2-2.2-.3-6.6-.9-12.2-3.5-17.1-7.7C5.4 52 1.9 45.7.5 38.2c-.2-1.1-.3-2.3-.5-3.4v-4.6c.1-.7.2-1.5.3-2.2.9-6.3 3.4-11.9 7.6-16.8 5-5.8 11.4-9.4 18.9-10.8C28 .3 29.1.2 30.2 0zm21.4 49.1V36.9c0-1.3 0-2.5-.2-3.8-.5-4-2.7-7.9-8.1-8.3-3.1-.3-5.7.7-7.6 3.3-.1.1-.2.3-.4.5v-3.3h-7.8V49h7.9V35.8c0-1.3.3-2.4 1.1-3.4 1.1-1.3 2.6-1.8 4.3-1.4 1.5.3 2.3 1.4 2.7 2.9.1.6.3 1.2.3 1.9V49c2.6.1 5.1.1 7.8.1zm-28.6 0V25.3h-7c-.6 0-.8.1-.8.8v23H23zM14.7 18c0 2.4 1.8 4.1 4.4 4.1 2.6 0 4.5-1.7 4.5-4.1 0-2.4-1.8-4.2-4.4-4.2-2.7 0-4.5 1.7-4.5 4.2z"/></svg>