<?xml version="1.0" encoding="utf-8"?>
<!-- Generator: Adobe Illustrator 27.0.0, SVG Export Plug-In . SVG Version: 6.00 Build 0)  -->
<svg version="1.1" id="Layer_1" xmlns="http://www.w3.org/2000/svg" xmlns:xlink="http://www.w3.org/1999/xlink" x="0px" y="0px"
	 viewBox="0 0 49.73 17.44" style="enable-background:new 0 0 49.73 17.44;" xml:space="preserve">
<style type="text/css">
	.st0{fill:#010101;}
	.st1{fill:#FECF0A;}
</style>
<g>
	<path class="st0" d="M4.26,14.1c0-0.09,0.01-0.19,0.04-0.29s0.1-0.15,0.22-0.15c0.06,0,0.21,0.03,0.45,0.1s0.5,0.14,0.78,0.22
		s0.56,0.16,0.83,0.23s0.46,0.11,0.56,0.12h0.09c0.52,0,1.04-0.1,1.56-0.29s1.01-0.47,1.44-0.82s0.79-0.76,1.06-1.22
		s0.41-0.96,0.41-1.5c0-0.42-0.08-0.83-0.25-1.24s-0.38-0.79-0.66-1.17s-0.6-0.72-0.97-1.04S9.09,6.45,8.68,6.2S7.85,5.74,7.43,5.56
		S6.6,5.26,6.21,5.19C6.23,5.94,6.29,6.65,6.4,7.32s0.22,1.31,0.33,1.92s0.2,1.22,0.25,1.8c0.07,0.59,0.07,1.17,0,1.76
		c0,0.07,0,0.14,0,0.22s-0.01,0.15-0.04,0.23s-0.08,0.14-0.14,0.18s-0.14,0.07-0.24,0.07c-0.18,0.09-0.31,0.06-0.4-0.11
		S6,12.99,5.95,12.65s-0.08-0.73-0.09-1.19s-0.03-0.93-0.06-1.43S5.73,9.05,5.69,8.57S5.56,7.65,5.46,7.25
		C5.44,7.11,5.41,6.93,5.37,6.7S5.29,6.25,5.23,6.01S5.1,5.55,5.03,5.34S4.87,4.99,4.79,4.89c-0.84,0-1.52,0.03-2.02,0.08
		s-0.91,0.11-1.2,0.18S1.05,5.3,0.92,5.38S0.66,5.51,0.55,5.56L0.52,5.58C0.5,5.59,0.48,5.6,0.47,5.6c-0.02,0-0.04-0.01-0.04-0.02
		C0.42,5.57,0.41,5.56,0.4,5.56C0.38,5.55,0.37,5.53,0.36,5.49S0.33,5.41,0.32,5.36S0.28,5.25,0.26,5.19s-0.03-0.1-0.03-0.12V5
		c0-0.16,0.08-0.3,0.25-0.42s0.38-0.22,0.63-0.3s0.53-0.15,0.83-0.2s0.59-0.09,0.85-0.11S3.3,3.92,3.48,3.9s0.28-0.03,0.29-0.03
		c0.6,0,1.24,0.07,1.92,0.2S7.04,4.41,7.7,4.66S9,5.24,9.6,5.62s1.14,0.82,1.6,1.31s0.83,1.04,1.11,1.65s0.41,1.27,0.41,1.97
		c0,0.64-0.1,1.22-0.3,1.74s-0.47,0.97-0.83,1.35s-0.76,0.71-1.23,0.98S9.4,15.08,8.87,15.2s-1.07,0.18-1.63,0.18
		s-1.1-0.06-1.63-0.19c-0.11-0.04-0.23-0.08-0.39-0.15s-0.3-0.14-0.45-0.22s-0.27-0.18-0.37-0.31S4.26,14.26,4.26,14.1z"/>
	<path class="st0" d="M14.92,14.53c-0.06-0.43-0.11-0.89-0.17-1.36s-0.1-0.95-0.15-1.43s-0.1-0.96-0.16-1.42
		c-0.06-0.49-0.12-0.95-0.19-1.37c-0.04-0.18-0.1-0.41-0.18-0.7s-0.17-0.61-0.25-0.94s-0.16-0.67-0.22-1.01s-0.1-0.65-0.1-0.93
		c0.14-0.19,0.28-0.22,0.42-0.11s0.28,0.34,0.42,0.66s0.28,0.73,0.41,1.23s0.26,1.03,0.37,1.59s0.22,1.14,0.32,1.74
		s0.18,1.16,0.25,1.69s0.13,1,0.18,1.41s0.07,0.72,0.07,0.93c0,0.07,0,0.14,0,0.21s-0.01,0.14-0.02,0.2s-0.04,0.12-0.1,0.18
		s-0.13,0.09-0.24,0.11c-0.07,0.02-0.14,0-0.21-0.06s-0.14-0.14-0.21-0.22s-0.13-0.16-0.17-0.24S14.93,14.55,14.92,14.53z"/>
	<path class="st0" d="M16.93,6.16c0-0.13,0.04-0.21,0.13-0.24s0.18-0.04,0.27-0.04c0.22,0,0.43,0.13,0.62,0.39s0.36,0.56,0.52,0.91
		s0.3,0.69,0.42,1.04s0.23,0.61,0.33,0.8c0.04,0.07,0.11,0.22,0.21,0.44s0.23,0.49,0.36,0.79s0.28,0.62,0.42,0.96
		s0.29,0.65,0.43,0.96s0.26,0.57,0.35,0.8s0.16,0.38,0.19,0.45c0.07-0.07,0.14-0.23,0.22-0.49s0.16-0.58,0.25-0.96
		s0.17-0.8,0.25-1.25s0.17-0.91,0.25-1.37S22.34,8.42,22.43,8s0.19-0.81,0.28-1.13s0.18-0.58,0.27-0.76s0.18-0.25,0.27-0.22
		c0.18-0.05,0.3,0.04,0.37,0.25s0.1,0.52,0.09,0.91s-0.06,0.86-0.14,1.4s-0.19,1.09-0.33,1.66s-0.29,1.14-0.46,1.71
		s-0.35,1.1-0.55,1.56s-0.4,0.87-0.6,1.2s-0.39,0.54-0.58,0.63c-0.02,0-0.06,0-0.12-0.01s-0.09-0.01-0.11-0.01
		c-0.06-0.12-0.16-0.32-0.32-0.61S20.2,14,20.04,13.67s-0.32-0.62-0.46-0.91s-0.23-0.48-0.28-0.6c-0.07-0.15-0.18-0.39-0.33-0.7
		s-0.31-0.67-0.48-1.06s-0.35-0.81-0.54-1.24s-0.35-0.85-0.51-1.24s-0.28-0.74-0.38-1.05S16.93,6.32,16.93,6.16z"/>
</g>
<path class="st1" d="M30.97,2.36C32.31,0.91,34.23,0,36.35,0c4.04,0,7.31,3.27,7.31,7.31c0,1.63-0.53,3.14-1.44,4.35"/>
<g>
	<path class="st0" d="M29.52,6.39l-1.11,2.08h-0.16l-1.58-3.75h0.95l0.81,2.18l1.07-2.18h0.03l1.08,2.16l0.81-2.16h0.93l-1.57,3.75
		h-0.16L29.52,6.39z"/>
	<path class="st0" d="M33.55,8.29c-0.3-0.18-0.52-0.41-0.66-0.71c-0.14-0.3-0.21-0.62-0.21-0.98c0-0.4,0.08-0.75,0.25-1.05
		c0.17-0.3,0.4-0.53,0.69-0.69c0.29-0.16,0.63-0.24,1-0.24c0.58,0,1.01,0.16,1.29,0.48c0.28,0.32,0.42,0.77,0.42,1.34
		c0,0.15-0.01,0.3-0.02,0.46h-2.7c0.06,0.33,0.18,0.57,0.36,0.72c0.18,0.15,0.42,0.22,0.74,0.22c0.26,0,0.48-0.02,0.65-0.07
		c0.17-0.04,0.32-0.1,0.47-0.18l0.27,0.63c-0.14,0.09-0.32,0.16-0.56,0.23c-0.23,0.07-0.52,0.1-0.85,0.1
		C34.22,8.55,33.85,8.47,33.55,8.29z M35.46,6.29c0.01-0.34-0.07-0.58-0.22-0.71c-0.15-0.14-0.37-0.21-0.65-0.21
		c-0.57,0-0.9,0.31-0.99,0.92H35.46z"/>
	<path class="st0" d="M38.69,8.33c-0.24-0.15-0.41-0.32-0.5-0.52l-0.02,0.66h-0.85v-6h0.87v2.31l-0.04,0.64
		c0.09-0.22,0.27-0.4,0.54-0.56c0.27-0.16,0.56-0.23,0.88-0.23c0.37,0,0.69,0.08,0.97,0.25c0.27,0.17,0.49,0.4,0.63,0.69
		c0.15,0.3,0.22,0.64,0.22,1.03c0,0.4-0.09,0.74-0.26,1.04c-0.17,0.29-0.4,0.52-0.69,0.68c-0.29,0.16-0.6,0.24-0.94,0.24
		C39.2,8.55,38.93,8.48,38.69,8.33z M40.18,7.48c0.19-0.23,0.29-0.52,0.29-0.88c0-0.36-0.09-0.66-0.28-0.89
		c-0.19-0.23-0.46-0.34-0.82-0.34c-0.31,0-0.57,0.11-0.78,0.32c-0.21,0.22-0.32,0.5-0.32,0.85V6.6c0,0.23,0.05,0.44,0.15,0.63
		c0.1,0.19,0.23,0.33,0.4,0.43c0.17,0.1,0.35,0.16,0.55,0.16C39.71,7.82,39.99,7.71,40.18,7.48z"/>
</g>
<g>
	<path class="st0" d="M27.63,15.39c-0.28-0.13-0.51-0.33-0.69-0.59c-0.18-0.26-0.27-0.59-0.27-0.98c0-0.34,0.1-0.64,0.29-0.89
		c0.19-0.26,0.47-0.52,0.85-0.78c-0.24-0.31-0.41-0.57-0.51-0.77c-0.1-0.2-0.15-0.43-0.15-0.68c0-0.28,0.07-0.52,0.2-0.74
		c0.13-0.21,0.31-0.38,0.53-0.49c0.22-0.11,0.47-0.17,0.75-0.17c0.29,0,0.54,0.06,0.75,0.18c0.21,0.12,0.37,0.27,0.48,0.47
		s0.17,0.41,0.17,0.64c0,0.33-0.08,0.62-0.24,0.89c-0.16,0.27-0.44,0.57-0.84,0.91c0.28,0.36,0.66,0.85,1.14,1.46
		c0.32-0.28,0.58-0.58,0.77-0.9l0.68,0.56c-0.11,0.15-0.24,0.32-0.41,0.49c-0.16,0.18-0.34,0.34-0.53,0.49
		c0.27,0.35,0.53,0.67,0.78,0.97h-0.98l-0.34-0.41c-0.47,0.35-0.98,0.53-1.53,0.53C28.22,15.58,27.91,15.52,27.63,15.39z
		 M29.04,14.7c0.15-0.05,0.32-0.15,0.5-0.31l-0.78-0.98l-0.45-0.56c-0.25,0.18-0.42,0.34-0.51,0.49c-0.1,0.15-0.14,0.32-0.14,0.51
		c0,0.27,0.08,0.49,0.25,0.67c0.16,0.17,0.4,0.26,0.71,0.26C28.75,14.77,28.89,14.75,29.04,14.7z M29.04,11.15
		c0.11-0.16,0.16-0.34,0.16-0.55c0-0.17-0.05-0.31-0.16-0.42c-0.11-0.1-0.25-0.15-0.44-0.15c-0.17,0-0.32,0.06-0.44,0.17
		c-0.13,0.11-0.19,0.28-0.19,0.49c0,0.14,0.04,0.28,0.13,0.45c0.08,0.16,0.21,0.35,0.38,0.57C28.74,11.5,28.93,11.31,29.04,11.15z"
		/>
	<path class="st0" d="M32.68,11.71h0.85v0.69c0.3-0.53,0.77-0.79,1.41-0.79c0.53,0,0.96,0.17,1.28,0.5
		c0.33,0.34,0.49,0.82,0.49,1.45c0,0.39-0.08,0.74-0.24,1.04c-0.16,0.3-0.38,0.53-0.65,0.69c-0.27,0.16-0.58,0.25-0.92,0.25
		c-0.32,0-0.59-0.06-0.82-0.17s-0.41-0.27-0.54-0.48l0.01,2.55h-0.86V11.71z M35.51,14.46c0.19-0.23,0.29-0.52,0.29-0.87
		c0-0.37-0.09-0.67-0.28-0.89c-0.19-0.22-0.46-0.33-0.82-0.33c-0.2,0-0.38,0.05-0.55,0.14c-0.17,0.1-0.31,0.23-0.41,0.41
		c-0.1,0.18-0.15,0.38-0.15,0.62v0.06c0,0.23,0.05,0.44,0.15,0.62c0.1,0.18,0.24,0.32,0.4,0.42c0.17,0.1,0.35,0.15,0.56,0.15
		C35.04,14.8,35.31,14.69,35.51,14.46z"/>
	<path class="st0" d="M37.66,11.71h0.88v0.74c0.09-0.25,0.23-0.45,0.42-0.6c0.2-0.15,0.42-0.23,0.67-0.23
		c0.17,0,0.29,0.02,0.36,0.05l-0.12,0.89c-0.05-0.03-0.16-0.05-0.32-0.05c-0.26,0-0.49,0.08-0.7,0.24
		c-0.21,0.16-0.31,0.42-0.31,0.78v1.93h-0.88V11.71z"/>
	<path class="st0" d="M40.75,10.84c-0.11-0.11-0.17-0.26-0.17-0.42c0-0.15,0.06-0.28,0.17-0.39s0.26-0.16,0.42-0.16
		c0.16,0,0.3,0.05,0.42,0.16s0.17,0.24,0.17,0.39c0,0.17-0.06,0.31-0.17,0.42s-0.25,0.17-0.42,0.17
		C41.01,11.01,40.86,10.95,40.75,10.84z M40.72,11.71h0.91v3.75h-0.91V11.71z"/>
	<path class="st0" d="M42.91,11.71h0.87l0.01,0.69c0.1-0.23,0.27-0.42,0.49-0.56c0.22-0.15,0.48-0.22,0.78-0.22
		c0.39,0,0.68,0.08,0.89,0.24c0.21,0.16,0.35,0.38,0.42,0.67c0.07,0.29,0.11,0.66,0.11,1.13v1.81h-0.88v-1.78
		c0-0.47-0.05-0.81-0.14-1.02c-0.09-0.21-0.28-0.31-0.57-0.31c-0.16,0-0.33,0.05-0.5,0.15c-0.17,0.1-0.31,0.25-0.42,0.44
		c-0.11,0.19-0.17,0.41-0.17,0.67v1.86h-0.88V11.71z"/>
	<path class="st0" d="M47.97,12.43h-0.66v-0.72h0.66v-1.53l0.89-0.2v1.72h0.87v0.72h-0.87v3.03h-0.89V12.43z"/>
</g>
</svg>
