<?xml version="1.0" encoding="utf-8"?>
<!-- Generator: Adobe Illustrator 27.0.0, SVG Export Plug-In . SVG Version: 6.00 Build 0)  -->
<svg version="1.1" id="Layer_1" xmlns="http://www.w3.org/2000/svg" xmlns:xlink="http://www.w3.org/1999/xlink" x="0px" y="0px"
	 viewBox="0 0 22.68 22.68" style="enable-background:new 0 0 22.68 22.68;" xml:space="preserve">
<style type="text/css">
	.st0{fill:#FECF0A;}
	.st1{fill:#010101;}
</style>
<rect class="st0" width="22.68" height="22.68"/>
<g>
	<path class="st1" d="M4.3,15.58c0-0.08,0.01-0.17,0.04-0.26c0.03-0.09,0.09-0.14,0.2-0.14c0.05,0,0.19,0.03,0.41,0.09
		c0.22,0.06,0.46,0.13,0.71,0.2c0.26,0.07,0.51,0.15,0.76,0.21c0.25,0.06,0.42,0.1,0.51,0.11h0.08c0.47,0,0.95-0.09,1.42-0.26
		s0.92-0.43,1.31-0.75c0.39-0.32,0.72-0.69,0.97-1.11c0.25-0.42,0.37-0.88,0.37-1.37c0-0.38-0.07-0.76-0.23-1.13
		c-0.16-0.37-0.35-0.72-0.6-1.07c-0.26-0.35-0.55-0.66-0.89-0.95C9.04,8.86,8.71,8.6,8.34,8.37S7.58,7.96,7.2,7.79
		S6.44,7.52,6.08,7.45C6.1,8.14,6.16,8.79,6.26,9.4s0.2,1.2,0.3,1.75c0.1,0.56,0.18,1.11,0.23,1.64c0.06,0.54,0.06,1.07,0,1.61
		c0,0.06,0,0.13,0,0.2c0,0.07-0.01,0.14-0.04,0.21c-0.03,0.07-0.07,0.13-0.13,0.16c-0.05,0.04-0.13,0.06-0.22,0.06
		c-0.16,0.08-0.28,0.05-0.36-0.1c-0.08-0.16-0.15-0.36-0.19-0.68s-0.07-0.67-0.08-1.09s-0.03-0.85-0.05-1.3
		c-0.03-0.46-0.06-0.89-0.1-1.33C5.57,10.1,5.49,9.7,5.4,9.33c-0.02-0.13-0.05-0.29-0.08-0.5C5.28,8.62,5.24,8.42,5.19,8.2
		C5.13,7.98,5.07,7.78,5.01,7.59S4.86,7.27,4.79,7.18c-0.77,0-1.39,0.03-1.84,0.07s-0.83,0.1-1.09,0.16
		C1.59,7.48,1.38,7.55,1.26,7.63C1.14,7.7,1.02,7.75,0.92,7.79L0.89,7.81C0.87,7.82,0.86,7.83,0.85,7.83
		c-0.02,0-0.04-0.01-0.04-0.02C0.8,7.8,0.79,7.79,0.78,7.79C0.76,7.78,0.75,7.76,0.75,7.73C0.74,7.69,0.72,7.65,0.71,7.61
		C0.7,7.56,0.67,7.51,0.65,7.45C0.64,7.4,0.63,7.36,0.63,7.34V7.28c0-0.15,0.07-0.27,0.23-0.38S1.2,6.7,1.43,6.62
		c0.23-0.07,0.48-0.14,0.76-0.18s0.54-0.08,0.78-0.1C3.2,6.32,3.43,6.29,3.59,6.28c0.16-0.02,0.26-0.03,0.26-0.03
		c0.55,0,1.13,0.06,1.75,0.18c0.62,0.12,1.23,0.31,1.83,0.54C8.05,7.2,8.63,7.5,9.18,7.85c0.55,0.35,1.04,0.75,1.46,1.2
		c0.42,0.45,0.76,0.95,1.01,1.51c0.26,0.56,0.37,1.16,0.37,1.8c0,0.58-0.09,1.11-0.27,1.59s-0.43,0.89-0.76,1.23
		c-0.33,0.35-0.69,0.65-1.12,0.89c-0.43,0.25-0.88,0.42-1.36,0.53s-0.98,0.16-1.49,0.16s-1-0.05-1.49-0.17
		c-0.1-0.04-0.21-0.07-0.36-0.14s-0.27-0.13-0.41-0.2c-0.14-0.07-0.25-0.16-0.34-0.28C4.34,15.84,4.3,15.73,4.3,15.58z"/>
	<path class="st1" d="M14.03,15.98c-0.05-0.39-0.1-0.81-0.16-1.24c-0.05-0.43-0.09-0.87-0.14-1.3c-0.05-0.44-0.09-0.88-0.15-1.3
		c-0.05-0.45-0.11-0.87-0.17-1.25c-0.04-0.16-0.09-0.37-0.16-0.64c-0.07-0.26-0.16-0.56-0.23-0.86s-0.15-0.61-0.2-0.92
		c-0.05-0.31-0.09-0.59-0.09-0.85c0.13-0.17,0.26-0.2,0.38-0.1s0.26,0.31,0.38,0.6c0.13,0.29,0.26,0.67,0.37,1.12
		c0.12,0.46,0.24,0.94,0.34,1.45s0.2,1.04,0.29,1.59c0.09,0.55,0.16,1.06,0.23,1.54c0.06,0.48,0.12,0.91,0.16,1.29
		c0.05,0.37,0.06,0.66,0.06,0.85c0,0.06,0,0.13,0,0.19s-0.01,0.13-0.02,0.18c-0.01,0.05-0.04,0.11-0.09,0.16
		c-0.05,0.05-0.12,0.08-0.22,0.1c-0.06,0.02-0.13,0-0.19-0.05c-0.06-0.05-0.13-0.13-0.19-0.2c-0.06-0.07-0.12-0.15-0.16-0.22
		C14.06,16.05,14.04,15.99,14.03,15.98z"/>
	<path class="st1" d="M15.86,8.34c0-0.12,0.04-0.19,0.12-0.22c0.08-0.03,0.16-0.04,0.25-0.04c0.2,0,0.39,0.12,0.57,0.36
		s0.33,0.51,0.47,0.83c0.15,0.32,0.27,0.63,0.38,0.95c0.11,0.32,0.21,0.56,0.3,0.73c0.04,0.06,0.1,0.2,0.19,0.4
		c0.09,0.2,0.21,0.45,0.33,0.72c0.12,0.27,0.26,0.57,0.38,0.88c0.13,0.31,0.26,0.59,0.39,0.88c0.13,0.28,0.24,0.52,0.32,0.73
		s0.15,0.35,0.17,0.41c0.06-0.06,0.13-0.21,0.2-0.45c0.07-0.24,0.15-0.53,0.23-0.88c0.08-0.35,0.16-0.73,0.23-1.14
		c0.07-0.41,0.16-0.83,0.23-1.25c0.07-0.42,0.17-0.85,0.26-1.23c0.08-0.38,0.17-0.74,0.26-1.03c0.08-0.29,0.16-0.53,0.25-0.69
		c0.08-0.16,0.16-0.23,0.25-0.2c0.16-0.05,0.27,0.04,0.34,0.23c0.06,0.19,0.09,0.47,0.08,0.83S22,9.94,21.92,10.43
		s-0.17,0.99-0.3,1.51c-0.13,0.52-0.26,1.04-0.42,1.56c-0.16,0.52-0.32,1-0.5,1.42s-0.36,0.79-0.55,1.09
		c-0.18,0.3-0.36,0.49-0.53,0.57c-0.02,0-0.05,0-0.11-0.01s-0.08-0.01-0.1-0.01c-0.05-0.11-0.15-0.29-0.29-0.56
		c-0.15-0.26-0.27-0.53-0.42-0.83c-0.15-0.3-0.29-0.57-0.42-0.83c-0.13-0.26-0.21-0.44-0.26-0.55c-0.06-0.14-0.16-0.36-0.3-0.64
		c-0.14-0.28-0.28-0.61-0.44-0.97c-0.16-0.36-0.32-0.74-0.49-1.13s-0.32-0.78-0.47-1.13c-0.15-0.36-0.26-0.68-0.35-0.96
		C15.89,8.7,15.86,8.48,15.86,8.34z"/>
</g>
</svg>
