<svg width="126" height="81" viewBox="0 0 126 81" fill="none" xmlns="http://www.w3.org/2000/svg">
<path d="M19.8203 24.2C18.687 24.2 17.6953 23.95 16.8453 23.45C15.9953 22.95 15.3286 22.1917 14.8453 21.175C14.3786 20.1417 14.1453 18.8417 14.1453 17.275C14.1453 15.6917 14.3703 14.3917 14.8203 13.375C15.2703 12.3583 15.9203 11.6 16.7703 11.1C17.6203 10.6 18.637 10.35 19.8203 10.35C21.087 10.35 22.2203 10.6417 23.2203 11.225C24.237 11.7917 25.037 12.5917 25.6203 13.625C26.2203 14.6583 26.5203 15.875 26.5203 17.275C26.5203 18.6917 26.2203 19.9167 25.6203 20.95C25.037 21.9833 24.237 22.7833 23.2203 23.35C22.2203 23.9167 21.087 24.2 19.8203 24.2ZM11.8703 28.85V10.55H15.5953V13.3L15.5203 17.3L15.7703 21.275V28.85H11.8703ZM19.1453 21C19.7953 21 20.3703 20.85 20.8703 20.55C21.387 20.25 21.7953 19.825 22.0953 19.275C22.412 18.7083 22.5703 18.0417 22.5703 17.275C22.5703 16.4917 22.412 15.825 22.0953 15.275C21.7953 14.725 21.387 14.3 20.8703 14C20.3703 13.7 19.7953 13.55 19.1453 13.55C18.4953 13.55 17.912 13.7 17.3953 14C16.8786 14.3 16.4703 14.725 16.1703 15.275C15.8703 15.825 15.7203 16.4917 15.7203 17.275C15.7203 18.0417 15.8703 18.7083 16.1703 19.275C16.4703 19.825 16.8786 20.25 17.3953 20.55C17.912 20.85 18.4953 21 19.1453 21ZM35.5311 24.2C34.0977 24.2 32.8227 23.9 31.7061 23.3C30.6061 22.7 29.7311 21.8833 29.0811 20.85C28.4477 19.8 28.1311 18.6083 28.1311 17.275C28.1311 15.925 28.4477 14.7333 29.0811 13.7C29.7311 12.65 30.6061 11.8333 31.7061 11.25C32.8227 10.65 34.0977 10.35 35.5311 10.35C36.9477 10.35 38.2144 10.65 39.3311 11.25C40.4477 11.8333 41.3227 12.6417 41.9561 13.675C42.5894 14.7083 42.9061 15.9083 42.9061 17.275C42.9061 18.6083 42.5894 19.8 41.9561 20.85C41.3227 21.8833 40.4477 22.7 39.3311 23.3C38.2144 23.9 36.9477 24.2 35.5311 24.2ZM35.5311 21C36.1811 21 36.7644 20.85 37.2811 20.55C37.7977 20.25 38.2061 19.825 38.5061 19.275C38.8061 18.7083 38.9561 18.0417 38.9561 17.275C38.9561 16.4917 38.8061 15.825 38.5061 15.275C38.2061 14.725 37.7977 14.3 37.2811 14C36.7644 13.7 36.1811 13.55 35.5311 13.55C34.8811 13.55 34.2977 13.7 33.7811 14C33.2644 14.3 32.8477 14.725 32.5311 15.275C32.2311 15.825 32.0811 16.4917 32.0811 17.275C32.0811 18.0417 32.2311 18.7083 32.5311 19.275C32.8477 19.825 33.2644 20.25 33.7811 20.55C34.2977 20.85 34.8811 21 35.5311 21ZM45.5129 24V10.55H49.2379V14.35L48.7129 13.25C49.1129 12.3 49.7546 11.5833 50.6379 11.1C51.5212 10.6 52.5962 10.35 53.8629 10.35V13.95C53.6962 13.9333 53.5462 13.925 53.4129 13.925C53.2796 13.9083 53.1379 13.9 52.9879 13.9C51.9212 13.9 51.0546 14.2083 50.3879 14.825C49.7379 15.425 49.4129 16.3667 49.4129 17.65V24H45.5129ZM62.1457 24.2C60.5624 24.2 59.329 23.8 58.4457 23C57.5624 22.1833 57.1207 20.975 57.1207 19.375V7.575H61.0207V19.325C61.0207 19.8917 61.1707 20.3333 61.4707 20.65C61.7707 20.95 62.179 21.1 62.6957 21.1C63.3124 21.1 63.8374 20.9333 64.2707 20.6L65.3207 23.35C64.9207 23.6333 64.4374 23.85 63.8707 24C63.3207 24.1333 62.7457 24.2 62.1457 24.2ZM55.0457 13.85V10.85H64.3707V13.85H55.0457ZM67.985 24V10.25C67.985 8.73333 68.435 7.525 69.335 6.625C70.235 5.70833 71.5183 5.25 73.185 5.25C73.7516 5.25 74.2933 5.30833 74.81 5.425C75.3433 5.54167 75.7933 5.725 76.16 5.975L75.135 8.8C74.9183 8.65 74.6766 8.53333 74.41 8.45C74.1433 8.36667 73.86 8.325 73.56 8.325C72.9933 8.325 72.5516 8.49167 72.235 8.825C71.935 9.14167 71.785 9.625 71.785 10.275V11.525L71.885 13.2V24H67.985ZM65.91 13.85V10.85H75.235V13.85H65.91ZM83.407 24.2C81.9737 24.2 80.6987 23.9 79.582 23.3C78.482 22.7 77.607 21.8833 76.957 20.85C76.3237 19.8 76.007 18.6083 76.007 17.275C76.007 15.925 76.3237 14.7333 76.957 13.7C77.607 12.65 78.482 11.8333 79.582 11.25C80.6987 10.65 81.9737 10.35 83.407 10.35C84.8237 10.35 86.0904 10.65 87.207 11.25C88.3237 11.8333 89.1987 12.6417 89.832 13.675C90.4654 14.7083 90.782 15.9083 90.782 17.275C90.782 18.6083 90.4654 19.8 89.832 20.85C89.1987 21.8833 88.3237 22.7 87.207 23.3C86.0904 23.9 84.8237 24.2 83.407 24.2ZM83.407 21C84.057 21 84.6404 20.85 85.157 20.55C85.6737 20.25 86.082 19.825 86.382 19.275C86.682 18.7083 86.832 18.0417 86.832 17.275C86.832 16.4917 86.682 15.825 86.382 15.275C86.082 14.725 85.6737 14.3 85.157 14C84.6404 13.7 84.057 13.55 83.407 13.55C82.757 13.55 82.1737 13.7 81.657 14C81.1404 14.3 80.7237 14.725 80.407 15.275C80.107 15.825 79.957 16.4917 79.957 17.275C79.957 18.0417 80.107 18.7083 80.407 19.275C80.7237 19.825 81.1404 20.25 81.657 20.55C82.1737 20.85 82.757 21 83.407 21ZM93.3889 24V5.45H97.2889V24H93.3889ZM100.908 24V10.55H104.808V24H100.908ZM102.858 8.675C102.142 8.675 101.558 8.46667 101.108 8.05C100.658 7.63333 100.433 7.11667 100.433 6.5C100.433 5.88333 100.658 5.36667 101.108 4.95C101.558 4.53333 102.142 4.325 102.858 4.325C103.575 4.325 104.158 4.525 104.608 4.925C105.058 5.30833 105.283 5.80833 105.283 6.425C105.283 7.075 105.058 7.61667 104.608 8.05C104.175 8.46667 103.592 8.675 102.858 8.675ZM114.828 24.2C113.395 24.2 112.12 23.9 111.003 23.3C109.903 22.7 109.028 21.8833 108.378 20.85C107.745 19.8 107.428 18.6083 107.428 17.275C107.428 15.925 107.745 14.7333 108.378 13.7C109.028 12.65 109.903 11.8333 111.003 11.25C112.12 10.65 113.395 10.35 114.828 10.35C116.245 10.35 117.511 10.65 118.628 11.25C119.745 11.8333 120.62 12.6417 121.253 13.675C121.886 14.7083 122.203 15.9083 122.203 17.275C122.203 18.6083 121.886 19.8 121.253 20.85C120.62 21.8833 119.745 22.7 118.628 23.3C117.511 23.9 116.245 24.2 114.828 24.2ZM114.828 21C115.478 21 116.061 20.85 116.578 20.55C117.095 20.25 117.503 19.825 117.803 19.275C118.103 18.7083 118.253 18.0417 118.253 17.275C118.253 16.4917 118.103 15.825 117.803 15.275C117.503 14.725 117.095 14.3 116.578 14C116.061 13.7 115.478 13.55 114.828 13.55C114.178 13.55 113.595 13.7 113.078 14C112.561 14.3 112.145 14.725 111.828 15.275C111.528 15.825 111.378 16.4917 111.378 17.275C111.378 18.0417 111.528 18.7083 111.828 19.275C112.145 19.825 112.561 20.25 113.078 20.55C113.595 20.85 114.178 21 114.828 21Z" fill="black"/>
<path d="M62.5 81L12.7035 39.75L112.296 39.75L62.5 81Z" fill="#007591"/>
</svg>
